<?xml version="1.0" encoding="UTF-8" standalone="no"?>
<!DOCTYPE svg PUBLIC "-//W3C//DTD SVG 1.1//EN"
 "http://www.w3.org/Graphics/SVG/1.1/DTD/svg11.dtd">
<!-- Generated by graphviz version 2.40.1 (20161225.0304)
 -->
<!-- Title: dependencies Pages: 1 -->
<svg width="1301pt" height="284pt"
 viewBox="0.00 0.00 1301.00 284.00" xmlns="http://www.w3.org/2000/svg" xmlns:xlink="http://www.w3.org/1999/xlink">
<g id="graph0" class="graph" transform="scale(1 1) rotate(0) translate(4 280)">
<title>dependencies</title>
<polygon fill="#ffffff" stroke="transparent" points="-4,4 -4,-280 1297,-280 1297,4 -4,4"/>
<text text-anchor="start" x="625.5091" y="-42.4" font-family="sans-serif" font-weight="bold" font-size="14.00" fill="#000000">Legend</text>
<polygon fill="#ffffb3" stroke="transparent" points="412.5,-10 412.5,-30 432.5,-30 432.5,-10 412.5,-10"/>
<text text-anchor="start" x="436.129" y="-15.4" font-family="sans-serif" font-size="14.00" fill="#000000"> &#160;Declarations</text>
<polygon fill="#8dd3c7" stroke="transparent" points="525.5,-10 525.5,-30 545.5,-30 545.5,-10 525.5,-10"/>
<text text-anchor="start" x="549.2251" y="-15.4" font-family="sans-serif" font-size="14.00" fill="#000000"> &#160;Module</text>
<polygon fill="#80b1d3" stroke="transparent" points="611.5,-10 611.5,-30 631.5,-30 631.5,-10 611.5,-10"/>
<text text-anchor="start" x="635.2812" y="-15.4" font-family="sans-serif" font-size="14.00" fill="#000000"> &#160;Bootstrap</text>
<polygon fill="#fdb462" stroke="transparent" points="708.5,-10 708.5,-30 728.5,-30 728.5,-10 708.5,-10"/>
<text text-anchor="start" x="732.1732" y="-15.4" font-family="sans-serif" font-size="14.00" fill="#000000"> &#160;Providers</text>
<polygon fill="#fb8072" stroke="transparent" points="804.5,-10 804.5,-30 824.5,-30 824.5,-10 804.5,-10"/>
<text text-anchor="start" x="828.2258" y="-15.4" font-family="sans-serif" font-size="14.00" fill="#000000"> &#160;Exports</text>
<g id="clust1" class="cluster">
<title>cluster_AppModule</title>
<polygon fill="none" stroke="#000000" stroke-dasharray="1,5" points="8,-70 8,-268 1285,-268 1285,-70 8,-70"/>
</g>
<g id="clust2" class="cluster">
<title>cluster_AppModule_declarations</title>
<polygon fill="none" stroke="#000000" points="168,-78 168,-130 1277,-130 1277,-78 168,-78"/>
</g>
<g id="clust10" class="cluster">
<title>cluster_AppModule_imports</title>
<polygon fill="none" stroke="#000000" points="16,-78 16,-130 160,-130 160,-78 16,-78"/>
</g>
<g id="clust12" class="cluster">
<title>cluster_AppModule_bootstrap</title>
<polygon fill="none" stroke="#000000" points="560,-208 560,-260 684,-260 684,-208 560,-208"/>
</g>
<!-- AdminDashboardComponent -->
<g id="node1" class="node">
<title>AdminDashboardComponent</title>
<polygon fill="#ffffb3" stroke="#000000" points="1269.3613,-122 1088.6387,-122 1088.6387,-86 1269.3613,-86 1269.3613,-122"/>
<text text-anchor="middle" x="1179" y="-99.8" font-family="Times,serif" font-size="14.00" fill="#000000">AdminDashboardComponent</text>
</g>
<!-- AppModule -->
<g id="node8" class="node">
<title>AppModule</title>
<polygon fill="#8dd3c7" stroke="#000000" points="663.6571,-187 660.6571,-191 639.6571,-191 636.6571,-187 580.3429,-187 580.3429,-151 663.6571,-151 663.6571,-187"/>
<text text-anchor="middle" x="622" y="-164.8" font-family="Times,serif" font-size="14.00" fill="#000000">AppModule</text>
</g>
<!-- AdminDashboardComponent&#45;&gt;AppModule -->
<g id="edge1" class="edge">
<title>AdminDashboardComponent&#45;&gt;AppModule</title>
<path fill="none" stroke="#000000" d="M1179,-122.2921C1179,-144.2057 1179,-178 1179,-178 1179,-178 673.8655,-178 673.8655,-178"/>
<polygon fill="#000000" stroke="#000000" points="673.8656,-174.5001 663.8655,-178 673.8655,-181.5001 673.8656,-174.5001"/>
</g>
<!-- AdminPropertiesComponent -->
<g id="node2" class="node">
<title>AdminPropertiesComponent</title>
<polygon fill="#ffffb3" stroke="#000000" points="1070.479,-122 893.521,-122 893.521,-86 1070.479,-86 1070.479,-122"/>
<text text-anchor="middle" x="982" y="-99.8" font-family="Times,serif" font-size="14.00" fill="#000000">AdminPropertiesComponent</text>
</g>
<!-- AdminPropertiesComponent&#45;&gt;AppModule -->
<g id="edge2" class="edge">
<title>AdminPropertiesComponent&#45;&gt;AppModule</title>
<path fill="none" stroke="#000000" d="M982,-122.1061C982,-141.3391 982,-169 982,-169 982,-169 674.0011,-169 674.0011,-169"/>
<polygon fill="#000000" stroke="#000000" points="674.0012,-165.5001 664.0011,-169 674.0011,-172.5001 674.0012,-165.5001"/>
</g>
<!-- AppComponent -->
<g id="node3" class="node">
<title>AppComponent</title>
<polygon fill="#ffffb3" stroke="#000000" points="875.9399,-122 770.0601,-122 770.0601,-86 875.9399,-86 875.9399,-122"/>
<text text-anchor="middle" x="823" y="-99.8" font-family="Times,serif" font-size="14.00" fill="#000000">AppComponent</text>
</g>
<!-- AppComponent&#45;&gt;AppModule -->
<g id="edge3" class="edge">
<title>AppComponent&#45;&gt;AppModule</title>
<path fill="none" stroke="#000000" d="M823,-122.027C823,-138.3976 823,-160 823,-160 823,-160 674.1362,-160 674.1362,-160"/>
<polygon fill="#000000" stroke="#000000" points="674.1362,-156.5001 664.1362,-160 674.1362,-163.5001 674.1362,-156.5001"/>
</g>
<!-- HeaderComponent -->
<g id="node4" class="node">
<title>HeaderComponent</title>
<polygon fill="#ffffb3" stroke="#000000" points="751.7437,-122 630.2563,-122 630.2563,-86 751.7437,-86 751.7437,-122"/>
<text text-anchor="middle" x="691" y="-99.8" font-family="Times,serif" font-size="14.00" fill="#000000">HeaderComponent</text>
</g>
<!-- HeaderComponent&#45;&gt;AppModule -->
<g id="edge4" class="edge">
<title>HeaderComponent&#45;&gt;AppModule</title>
<path fill="none" stroke="#000000" d="M646.9783,-122.1061C646.9783,-122.1061 646.9783,-140.991 646.9783,-140.991"/>
<polygon fill="#000000" stroke="#000000" points="643.4783,-140.9909 646.9783,-150.991 650.4783,-140.991 643.4783,-140.9909"/>
</g>
<!-- HomeComponent -->
<g id="node5" class="node">
<title>HomeComponent</title>
<polygon fill="#ffffb3" stroke="#000000" points="611.5451,-122 496.4549,-122 496.4549,-86 611.5451,-86 611.5451,-122"/>
<text text-anchor="middle" x="554" y="-99.8" font-family="Times,serif" font-size="14.00" fill="#000000">HomeComponent</text>
</g>
<!-- HomeComponent&#45;&gt;AppModule -->
<g id="edge5" class="edge">
<title>HomeComponent&#45;&gt;AppModule</title>
<path fill="none" stroke="#000000" d="M595.972,-122.1061C595.972,-122.1061 595.972,-140.991 595.972,-140.991"/>
<polygon fill="#000000" stroke="#000000" points="592.472,-140.9909 595.972,-150.991 599.472,-140.991 592.472,-140.9909"/>
</g>
<!-- SigninComponent -->
<g id="node6" class="node">
<title>SigninComponent</title>
<polygon fill="#ffffb3" stroke="#000000" points="477.8962,-122 360.1038,-122 360.1038,-86 477.8962,-86 477.8962,-122"/>
<text text-anchor="middle" x="419" y="-99.8" font-family="Times,serif" font-size="14.00" fill="#000000">SigninComponent</text>
</g>
<!-- SigninComponent&#45;&gt;AppModule -->
<g id="edge6" class="edge">
<title>SigninComponent&#45;&gt;AppModule</title>
<path fill="none" stroke="#000000" d="M419,-122.027C419,-138.3976 419,-160 419,-160 419,-160 569.9383,-160 569.9383,-160"/>
<polygon fill="#000000" stroke="#000000" points="569.9383,-163.5001 579.9383,-160 569.9382,-156.5001 569.9383,-163.5001"/>
</g>
<!-- SinglePropertyComponent -->
<g id="node7" class="node">
<title>SinglePropertyComponent</title>
<polygon fill="#ffffb3" stroke="#000000" points="341.8201,-122 176.1799,-122 176.1799,-86 341.8201,-86 341.8201,-122"/>
<text text-anchor="middle" x="259" y="-99.8" font-family="Times,serif" font-size="14.00" fill="#000000">SinglePropertyComponent</text>
</g>
<!-- SinglePropertyComponent&#45;&gt;AppModule -->
<g id="edge7" class="edge">
<title>SinglePropertyComponent&#45;&gt;AppModule</title>
<path fill="none" stroke="#000000" d="M259,-122.1061C259,-141.3391 259,-169 259,-169 259,-169 570.0047,-169 570.0047,-169"/>
<polygon fill="#000000" stroke="#000000" points="570.0047,-172.5001 580.0047,-169 570.0046,-165.5001 570.0047,-172.5001"/>
</g>
<!-- AppComponent  -->
<g id="node10" class="node">
<title>AppComponent </title>
<polygon fill="#80b1d3" stroke="#000000" points="676.439,-252 567.561,-252 567.561,-216 676.439,-216 676.439,-252"/>
<text text-anchor="middle" x="622" y="-229.8" font-family="Times,serif" font-size="14.00" fill="#000000">AppComponent </text>
</g>
<!-- AppModule&#45;&gt;AppComponent  -->
<g id="edge9" class="edge">
<title>AppModule&#45;&gt;AppComponent </title>
<path fill="none" stroke="#000000" stroke-dasharray="1,5" d="M622,-187.1061C622,-187.1061 622,-205.991 622,-205.991"/>
<polygon fill="#000000" stroke="#000000" points="618.5001,-205.9909 622,-215.991 625.5001,-205.991 618.5001,-205.9909"/>
</g>
<!-- AppRoutingModule -->
<g id="node9" class="node">
<title>AppRoutingModule</title>
<polygon fill="#8dd3c7" stroke="#000000" points="152.2744,-122 149.2744,-126 128.2744,-126 125.2744,-122 23.7256,-122 23.7256,-86 152.2744,-86 152.2744,-122"/>
<text text-anchor="middle" x="88" y="-99.8" font-family="Times,serif" font-size="14.00" fill="#000000">AppRoutingModule</text>
</g>
<!-- AppRoutingModule&#45;&gt;AppModule -->
<g id="edge8" class="edge">
<title>AppRoutingModule&#45;&gt;AppModule</title>
<path fill="none" stroke="#000000" d="M88,-122.2921C88,-144.2057 88,-178 88,-178 88,-178 570.0979,-178 570.0979,-178"/>
<polygon fill="#000000" stroke="#000000" points="570.098,-181.5001 580.0979,-178 570.0979,-174.5001 570.098,-181.5001"/>
</g>
</g>
</svg>
